<?xml version="1.0" encoding="UTF-8"?>
<svg width="133px" height="35px" viewBox="0 0 133 35" version="1.1" xmlns="http://www.w3.org/2000/svg" xmlns:xlink="http://www.w3.org/1999/xlink">
    <title>Logo</title>
    <defs>
        <polygon id="path-1" points="0 0 3.6106051 0 3.6106051 15.1677417 0 15.1677417"></polygon>
        <polygon id="path-3" points="0 34.4 132.383721 34.4 132.383721 0 0 0"></polygon>
    </defs>
    <g id="Symbols" stroke="none" stroke-width="1" fill="none" fill-rule="evenodd">
        <g id="Logo" transform="translate(-2.000000, -2.000000)">
            <rect id="Rectangle" x="0" y="0" width="138" height="40"></rect>
            <g id="Group-45" transform="translate(2.406977, 2.400000)">
                <path d="M33.7037931,7.01686378 C34.8856416,5.8437457 34.4570451,3.51597882 32.7465086,1.81807828 C31.035972,0.120177732 28.6915233,-0.305252712 27.5090331,0.86850224 C26.3271845,2.04162032 26.7551395,4.3693872 28.4663176,6.06728774 C30.1768541,7.76518828 32.5213029,8.19061873 33.7037931,7.01686378" id="Fill-1" fill="#FFFFFF"></path>
                <path d="M32.2926967,8.48402562 L30.5346809,9.83355723 L29.2649315,10.8079713 L24.4214056,14.5253927 L20.4145412,17.6008472 L18.8560666,18.7968927 L18.8560666,18.7975295 L18.5294863,19.0484571 C18.1887905,19.262446 17.7858585,19.3879098 17.3534122,19.3879098 C16.1349918,19.3879098 15.1481932,18.4084008 15.1481932,17.2002547 C15.1481932,16.7780087 15.270741,16.3856956 15.4792648,16.0519747 L15.7384758,15.7137957 L19.996852,10.1640938 C19.1736643,9.8590321 18.2831074,9.69153479 17.3534122,9.69153479 C13.1752375,9.69153479 9.7888115,13.0529448 9.7888115,17.2002547 C9.7888115,21.3469278 13.1752375,24.7089747 17.3534122,24.7089747 C19.2493745,24.7089747 20.9785178,24.0116 22.3053705,22.8665042 L30.8529202,16.1863546 C30.8529202,16.1863546 30.8914169,16.8582545 30.8914169,17.2002547 C30.8914169,24.6217233 24.8301122,30.6382523 17.3534122,30.6382523 L17.3534122,34.3996179 C26.9230492,34.3996179 34.6814167,26.6998363 34.6814167,17.2002547 C34.6814167,14.0184426 33.8094665,11.0397926 32.2926967,8.48402562" id="Fill-3" fill="#FFFFFF"></path>
                <path d="M17.3533481,3.76162032 C19.6490344,3.76162032 21.8106238,4.32971008 23.7046613,5.33023586 L26.0253704,2.30636798 C23.4749643,0.839651942 20.5126436,0.000254748769 17.3533481,0.000254748769 C10.6254089,0.000254748769 4.91185759,3.58011182 2.0412873,9.14064057 L5.40204885,10.9143289 C7.69196064,6.71734291 12.2063398,3.76162032 17.3533481,3.76162032" id="Fill-5" fill="#FFFFFF"></path>
                <path d="M12.4854409,33.0546081 C11.7565701,32.8291554 11.4030421,32.696686 10.7171593,32.3973562 C10.5266007,32.313926 10.4027696,32.1827304 10.4611563,32.0598141 L10.4611563,32.0566298 C10.5195429,31.9324397 10.6914949,31.9528196 10.8775622,32.0337024 C11.5474047,32.3266635 11.8932334,32.4565853 12.6054223,32.6763061 C12.5573014,32.8278817 12.5335618,32.9036694 12.4854409,33.0546081 M14.0638054,32.0114119 C14.1568391,31.6089088 13.8039527,31.1879365 13.291305,31.0357241 C12.1672015,30.7007294 11.6308142,30.4784611 10.6260505,29.94731 C10.4887456,30.2020587 10.4200932,30.33007 10.2827883,30.5848188 C11.2105586,31.0752101 11.7007499,31.284741 12.7260452,31.6165513 L12.7273285,31.6165513 C12.8344776,31.6522161 12.9018468,31.7432888 12.876824,31.8235346 C12.8511595,31.9031436 12.7408023,31.9407191 12.6317283,31.9050542 L12.6317283,31.9056911 C11.9901167,31.697434 11.6776519,31.5777021 11.0732538,31.3076684 C10.4540986,31.031266 9.79067217,31.1070537 9.55905039,31.5273892 C9.52376175,31.5910764 9.50579662,31.6235569 9.4711496,31.6878809 C9.2388862,32.1075795 9.63476056,32.6463732 10.3251346,32.9546192 C11.5608786,33.5061503 12.215964,33.7284186 13.5851632,34.0398489 C13.5858048,34.0360277 13.5864464,34.0341171 13.587088,34.0302958 C13.5896544,34.0309327 13.5909377,34.0309327 13.5935041,34.0315696 C13.6884626,33.6214241 14.0381409,32.1196801 14.0638054,32.0114119" id="Fill-7" fill="#FFFFFF"></path>
                <path d="M16.1509038,34.3694301 C16.2458623,32.8619543 16.2939832,32.1410153 16.3889417,30.6335395 C15.9372471,30.6048802 15.6427474,30.5800422 15.2032434,30.5176288 C14.9863787,32.0104565 14.9485236,32.7250268 14.7310173,34.2178546 C15.289861,34.3000111 15.5747366,34.3299441 16.1509038,34.3694301" id="Fill-9" fill="#FFFFFF"></path>
                <path d="M3.11630753,12.496255 C3.16635323,12.332579 3.30879101,12.2325901 3.4300556,12.2714393 C3.5519618,12.3109253 3.60778201,12.4707802 3.55837792,12.6293613 C3.1477465,13.9616973 3.02904835,14.6355078 2.9430724,15.9646595 C3.32996419,15.9888607 3.52373089,16.0015981 3.90998108,16.0251624 C3.99082414,14.7756197 4.10310617,14.1419321 4.49128118,12.8898419 C4.71456202,12.1657185 4.50090536,11.3906454 3.92537975,11.1511815 C3.35370382,10.9136283 3.06818666,10.7945333 2.49586911,10.55698 C1.92098512,10.3175162 1.13180286,10.8645892 0.845644086,11.7886903 C0.350961544,13.3853282 0.208523769,14.1941556 0.105224302,15.7876091 C0.51008122,15.813084 0.712188873,15.8258215 1.1176874,15.8512963 C1.21392914,14.3578317 1.34738435,13.5993172 1.80870309,12.1033051 C1.86388169,11.9256178 2.00952752,11.8128915 2.13143373,11.8517407 C2.25269832,11.8912267 2.30402725,12.0631821 2.25077348,12.2364113 C1.80228698,13.6910268 1.67268143,14.4278876 1.57900614,15.8793187 C1.94023347,15.9022461 2.12052633,15.9137098 2.48175366,15.9360003 C2.57029606,14.5654519 2.69284388,13.8699878 3.11630753,12.496255" id="Fill-11" fill="#FFFFFF"></path>
                <path d="M4.79489179,25.7343385 C4.30149247,26.0706069 4.05511362,26.2393779 3.5617143,26.5762832 C3.87995365,27.0367416 4.04933911,27.2602836 4.40543355,27.6946303 C4.86867712,27.318239 5.10094052,27.1297249 5.5641841,26.7546073 C5.23952863,26.358473 5.08554184,26.1540371 4.79489179,25.7343385" id="Fill-13" fill="#FFFFFF"></path>
                <path d="M4.42712002,23.7160914 C4.99943757,24.8178798 5.34526622,25.3426623 6.13573171,26.3043389 C6.43536432,26.0616907 6.88513405,25.6961262 6.88513405,25.6961262 C6.88513405,25.6961262 5.78027888,24.2472426 5.23298419,23.1696553 C4.91666967,22.5461577 4.24041105,22.1990625 3.65975255,22.4257889 C3.08230211,22.6499678 2.7935769,22.7626941 2.21740968,22.986873 C1.63546796,23.2135994 1.42566097,24.0740134 1.82923466,24.8688296 C2.52666647,26.2406517 2.95205496,26.8921717 3.93115426,28.0843959 C4.24490233,27.830284 4.40209717,27.7029096 4.71520363,27.447524 C3.82977963,26.3692998 3.44288783,25.781467 2.80127624,24.5465724 C2.69091904,24.3338571 2.73583185,24.0963039 2.89559314,24.0198793 C3.32290646,23.8148065 3.53592151,23.712907 3.96259323,23.509108 C4.12299613,23.4320465 4.32895345,23.5263036 4.42712002,23.7160914" id="Fill-15" fill="#FFFFFF"></path>
                <path d="M4.38509446,26.01418 C3.85255684,26.377197 3.58692964,26.5587055 3.05439201,26.9229963 C3.38482198,27.4012871 3.56062356,27.6337453 3.93019184,28.0840138 C4.43064889,27.6776895 4.68087741,27.4751642 5.18069284,27.0688399 C4.84512998,26.6599682 4.6860103,26.4485267 4.38509446,26.01418" id="Fill-17" fill="#FFFFFF"></path>
                <path d="M7.68592949,30.1563313 C7.59867031,30.2709683 7.39784588,30.2658733 7.23872621,30.1416833 C7.2881303,30.1824431 7.31251154,30.202823 7.36255724,30.2429459 C7.01608698,29.974186 6.84798474,29.834711 6.52204605,29.5449343 C6.37126733,29.411828 6.33212902,29.2163084 6.42965398,29.1112245 C6.62598713,28.9010568 6.72351209,28.7959729 6.91920363,28.5851683 C7.0173702,28.4800844 7.20792885,28.49728 7.34780018,28.6208331 C7.62305155,28.8660288 7.76548933,28.984487 8.05613938,29.2143977 C8.16585496,29.3283978 8.19793554,29.4837946 8.12094215,29.5856941 C7.9464238,29.8136942 7.85980623,29.9283312 7.68592949,30.1563313 M8.73432284,28.790241 C8.26337993,28.437414 8.03817426,28.2501737 7.6089361,27.8553131 C7.11874484,27.4050446 6.44505266,27.2923183 6.04532863,27.6572459 C5.78290949,27.8973466 5.65137911,28.0177154 5.38895997,28.2578161 C4.98923594,28.6227437 5.09574347,29.3933588 5.67896841,29.9302418 C5.68217647,29.928968 5.6841013,29.9283312 5.68730936,29.9264206 L5.68153486,29.9315155 C5.99977421,30.2238397 6.16338517,30.3658622 6.50023126,30.6390802 C6.64523548,30.7569015 6.7183792,30.8148569 6.86723309,30.928857 C6.92690297,30.9747117 6.95770033,30.9976391 7.01865343,31.0441308 C7.02057826,31.0415833 7.02121987,31.0396727 7.02314471,31.0371252 C7.0225031,31.0409464 7.02186149,31.0422202 7.02057826,31.0454045 C7.65962341,31.5243322 8.45137212,31.4969467 8.74202218,31.0415833 C8.93258082,30.7416166 9.02818095,30.5919517 9.21938121,30.291985 C9.50938965,29.8359847 9.27006852,29.1921072 8.73432284,28.790241" id="Fill-19" fill="#FFFFFF"></path>
                <path d="M1.37067486,20.4994424 C1.04794422,19.0824023 0.961968268,18.348089 0.964534715,16.8667249 C0.578926145,16.8660881 0.385801054,16.8660881 0.000192483479,16.8654512 C-0.00301557451,18.4417092 0.0893764955,19.223151 0.433921923,20.72999 C0.534654944,21.1713422 0.768843177,21.5337224 1.04922745,21.7521694 C1.1518853,21.8311416 1.25839283,21.8929181 1.36810841,21.9343148 C1.47974883,21.9763484 1.59331408,21.9967283 1.70302966,21.9954545 C1.82493587,21.9941808 1.9372179,21.9617003 2.0482167,21.9190299 C2.14574167,21.8820913 2.23685051,21.8311416 2.31961841,21.7598119 C2.3908373,21.6986722 2.45499846,21.6247951 2.51081866,21.5420017 C2.56535565,21.4604821 2.6121933,21.3687725 2.64876516,21.271968 C2.68597863,21.1751635 2.71356793,21.0707165 2.73153305,20.963722 C2.74885657,20.8548169 2.75655591,20.7420906 2.75398946,20.6280905 C2.75142301,20.5115429 2.73794917,20.3930848 2.71356793,20.2759003 C2.71100148,20.2618891 2.70779343,20.2472411 2.70394376,20.2332299 C2.58973689,19.7358329 2.54289924,19.4829948 2.47168036,18.9741341 C2.11366109,19.0238101 1.93465145,19.0486481 1.57663218,19.0976873 C1.65105912,19.6250172 1.69982161,19.8861347 1.81723653,20.4026378 C1.84225938,20.5128167 1.81980297,20.6185374 1.76526599,20.6860458 C1.76269954,20.6898671 1.75949148,20.6930514 1.75756665,20.6962358 C1.75050892,20.7026045 1.74345119,20.7096101 1.73575185,20.7153419 C1.72933574,20.7217107 1.7216364,20.7268056 1.71329545,20.7319006 C1.710729,20.7331744 1.70752094,20.7344481 1.7049545,20.7357218 C1.69340549,20.7420906 1.68057326,20.7478224 1.66709941,20.7510068 C1.54390999,20.7803029 1.40917155,20.6688503 1.37067486,20.4994424" id="Fill-21" fill="#FFFFFF"></path>
                <path d="M3.87449995,18.1690006 C3.84049454,17.8123524 3.69356548,17.4964639 3.47413432,17.262095 C3.39457448,17.1761173 3.3073153,17.1009664 3.21171517,17.0404636 C3.11419021,16.9780501 3.00960752,16.9309216 2.90181677,16.9022624 C2.78247702,16.8697819 2.66185403,16.8653238 2.53994783,16.8710557 C2.43215708,16.8761506 2.32693278,16.8958937 2.22363331,16.9372903 C2.13380769,16.9742289 2.04719012,17.0258155 1.9682719,17.0901396 C1.88935367,17.1538268 1.81813478,17.2302514 1.75525685,17.3187766 C1.69237891,17.4066649 1.63912515,17.5047432 1.59613717,17.6111008 C1.55314919,17.7193691 1.52171023,17.8352797 1.5037451,17.9550117 C1.48385514,18.0779279 1.47936386,18.2065761 1.48770481,18.3333136 C1.48834642,18.3485985 1.48962965,18.3645203 1.49155448,18.3798052 C1.53903374,18.8816603 1.57303915,19.1313141 1.65965672,19.6248898 C2.01639277,19.5637501 2.19411918,19.5338172 2.55021362,19.4726775 C2.47065378,19.0211353 2.43985642,18.7931351 2.39494361,18.3345873 C2.394302,18.3320398 2.394302,18.3301292 2.394302,18.3275817 L2.394302,18.3237605 C2.39366039,18.3205761 2.39366039,18.3173918 2.39366039,18.3148443 C2.39301878,18.3091125 2.39301878,18.3033806 2.39301878,18.2970119 C2.39237716,18.266442 2.39622683,18.2358722 2.40264295,18.2084867 C2.43215708,18.0881179 2.51749143,17.9964083 2.62592379,17.988129 C2.76836156,17.9773022 2.89540066,18.1110453 2.91208256,18.2855482 C3.03783843,19.5771244 3.17514331,20.2127226 3.57679217,21.4285111 C3.94443562,21.3100529 4.4968632,21.1317288 4.4968632,21.1317288 C4.4968632,21.1317288 3.99063165,19.3860629 3.87449995,18.1690006" id="Fill-23" fill="#FFFFFF"></path>
                <path d="M4.31182242,24.3411812 C4.31182242,24.3411812 5.19403837,25.843562 5.77020558,26.579786 L5.02144485,27.1886355 C5.02144485,27.1886355 3.92428901,25.7582212 3.45462932,24.8315726 L4.31182242,24.3411812 Z" id="Fill-25" fill="#FFFFFF"></path>
                <path d="M122.128394,22.1177339 L116.899901,22.1177339 C116.318601,22.1177339 115.847016,21.8521583 115.847016,21.3057222 L115.84445,21.2942585 C115.84445,20.7471855 116.315393,20.5268279 116.897976,20.5268279 L122.128394,20.5268279 L122.128394,22.1177339 Z M125.674581,17.5469041 L125.664957,17.5469041 L125.664315,16.4330151 C125.663032,14.7733269 124.302174,13.4282534 122.624359,13.4282534 L113.415308,13.4282534 L113.414025,16.3272944 L121.511163,16.3272944 L121.515013,16.3272944 C121.855067,16.3272944 122.131602,16.6005125 122.131602,16.9367808 C122.131602,17.2736861 121.855709,17.5462673 121.515655,17.5462673 L121.515655,17.5469041 L116.546373,17.5469041 C114.511181,17.5469041 112.860956,19.1046929 112.860956,21.0261354 L112.860956,21.7585382 C112.860956,23.6793439 114.511181,24.7964172 116.546373,24.7964172 L125.654691,24.7964172 L125.654691,24.7569312 L125.670731,24.757568 L125.667523,20.5268279 L125.674581,20.5268279 L125.674581,17.5469041 Z" id="Fill-27" fill="#FFFFFF"></path>
                <g id="Group-31" transform="translate(128.773116, 9.628676)">
                    <mask id="mask-2" fill="white">
                        <use xlink:href="#path-1"></use>
                    </mask>
                    <g id="Clip-30"></g>
                    <polygon id="Fill-29" fill="#FFFFFF" mask="url(#mask-2)" points="3.61099007 15.1677417 3.61099007 0 0 0 0 15.136535"></polygon>
                </g>
                <path d="M46.2057875,15.3123753 C45.6950647,15.3123753 45.2812252,14.9003192 45.2812252,14.3914585 C45.2812252,13.8825978 45.6950647,13.469268 46.2057875,13.469268 L56.9457241,13.469268 L56.9457241,9.61109786 L46.1429096,9.61109786 C43.6457572,9.61109786 41.620831,11.6280712 41.620831,14.1163298 L41.620831,20.29144 C41.620831,22.7796986 43.6457572,24.796672 46.1429096,24.796672 L56.9457241,24.796672 L56.9457241,20.7569934 L46.2057875,20.7569934 C45.6950647,20.7569934 45.2812252,20.3443004 45.2812252,19.8360766 C45.2812252,19.3272159 45.6950647,18.9145229 46.2057875,18.9145229 L56.9457241,18.9145229 L56.9457241,15.3123753 L46.2057875,15.3123753 Z" id="Fill-32" fill="#FFFFFF"></path>
                <mask id="mask-4" fill="white">
                    <use xlink:href="#path-3"></use>
                </mask>
                <g id="Clip-35"></g>
                <polygon id="Fill-34" fill="#FFFFFF" mask="url(#mask-4)" points="89.336074 22.3421039 93.3968338 22.3421039 93.3968338 16.3752509 89.336074 16.3752509"></polygon>
                <path d="M83.3183988,13.4695864 L93.6900503,13.4695864 L93.6900503,9.61077943 L82.8872358,9.61077943 C80.3900835,9.61077943 78.3645157,11.6277528 78.3645157,14.1166483 L78.3645157,20.2917584 C78.3645157,22.7793802 80.3900835,24.7963535 82.8872358,24.7963535 L93.6656691,24.7963535 L93.6656691,20.7566749 L83.3216069,20.7566749 C82.6081348,20.7566749 82.0294011,20.1834902 82.0287595,19.4752886 L82.0261931,14.7535202 C82.0255515,14.0446817 82.6049267,13.4695864 83.3183988,13.4695864" id="Fill-36" fill="#FFFFFF" mask="url(#mask-4)"></path>
                <polygon id="Fill-37" fill="#FFFFFF" mask="url(#mask-4)" points="89.5914354 24.7966083 93.662461 24.7966083 93.662461 18.35847 89.5914354 18.35847"></polygon>
                <path d="M105.676446,20.3526434 C105.675804,20.9277387 105.201653,21.3945659 104.615862,21.3952027 L105.079747,21.4117614 L101.900561,21.3913815 C101.315412,21.388834 100.841902,20.9220069 100.842543,20.3462747 L100.847035,17.4739823 C100.847677,16.8969763 101.325036,16.4301492 101.912752,16.432054 L104.817328,16.4549872 C105.309444,16.5466968 105.680937,16.9702166 105.680296,17.480351 L105.676446,20.3526434 Z M105.70981,13.4616892 L100.875908,13.455316 C98.6726135,13.4521361 96.884442,15.1430311 96.8812339,17.3077587 L96.8767383,20.8659622 C96.8735346,23.0306898 98.6578564,24.7878195 100.860509,24.7903669 L100.86885,24.7585233 L100.86885,24.7903669 L103.869667,24.794825 L105.161232,24.7960988 L105.686711,24.7967384 L105.686711,24.7648921 L105.694411,24.7967384 C107.897705,24.7992831 109.685877,23.0472485 109.689085,20.8825208 L109.69358,17.3243174 C109.696784,15.1602266 107.912462,13.4648736 105.70981,13.4616892 L105.70981,13.4616892 Z" id="Fill-38" fill="#FFFFFF" mask="url(#mask-4)"></path>
                <path d="M70.5657267,20.9515577 L59.8777607,20.9515577 L59.8777607,24.7931692 L70.6286047,24.7963535 C71.8874466,24.7963535 73.025024,24.2855823 73.844362,23.46147 C74.1427114,23.1627771 74.4019225,22.8303299 74.6098046,22.4628548 C74.8202532,22.0883741 74.9761648,21.6839605 75.0711234,21.2655356 C75.1769893,20.8025297 75.1891799,20.3376132 75.1705732,19.8650542 C75.1538913,19.44854 75.0910133,19.0390314 74.9614078,18.6397127 C74.8478425,18.2913437 74.6906477,17.9576228 74.4949561,17.6468293 C74.3018311,17.3398571 74.0714925,17.0564491 73.8103566,16.8036109 C73.548579,16.5514096 73.2560042,16.3297782 72.9416145,16.146996 C72.6227335,15.9610294 72.2813961,15.8151857 71.9265849,15.7120124 C71.5602247,15.6056548 71.1810322,15.5470626 70.799915,15.5355989 C70.7530773,15.5336883 70.7062397,15.5330514 70.659402,15.5330514 L66.5672032,15.5330514 L66.5672032,19.1307409 L70.5721428,19.1307409 C70.9141218,19.1307409 71.211188,19.3167075 71.3709493,19.5899256 C71.3792902,19.6045736 71.3869896,19.6185848 71.3940473,19.6332329 C71.4100876,19.6650765 71.4235614,19.6981938 71.4351104,19.7325849 C71.4479427,19.7663391 71.4594917,19.8000933 71.4678326,19.836395 C71.4703991,19.8478587 71.4716823,19.8593224 71.4742487,19.871423 C71.4838729,19.9242833 71.490289,19.9777806 71.490289,20.0338253 C71.490289,20.5401385 71.0764496,20.9515577 70.5657267,20.9515577" id="Fill-39" fill="#FFFFFF" mask="url(#mask-4)"></path>
                <path d="M64.482928,15.5325419 L64.4951186,15.5325419 C64.4803615,15.5319051 64.4675293,15.5312682 64.4534138,15.5306313 C64.4636796,15.5306313 64.4726622,15.5325419 64.482928,15.5325419" id="Fill-40" fill="#FFFFFF" mask="url(#mask-4)"></path>
                <path d="M64.3983636,15.5263643 C64.3008386,15.5155375 64.2065217,15.4913363 64.1186209,15.4556715 C64.2058801,15.4938838 64.300197,15.5174481 64.3983636,15.5263643" id="Fill-41" fill="#FFFFFF" mask="url(#mask-4)"></path>
                <path d="M64.4265945,9.60358277 C63.1677525,9.60358277 62.0301752,10.1290021 61.2101955,10.9760418 C60.9118461,11.2842878 60.6526351,11.626288 60.4453945,12.0045899 C60.2349459,12.3892606 60.0790343,12.8051379 59.9834342,13.2356633 C59.8782099,13.7126804 59.8660192,14.1903344 59.884626,14.6769045 C59.9006663,15.1061562 59.9641858,15.5264917 60.0937914,15.937274 C60.2073566,16.2958329 60.3645515,16.6397438 60.560243,16.9588166 C60.7527265,17.2747051 60.9837066,17.5663924 61.2448426,17.8262362 C61.5059785,18.0860799 61.7985534,18.3140801 62.1135847,18.5025941 C62.4324656,18.6930188 62.773803,18.8439575 63.1286142,18.9496782 C63.4949744,19.0585833 63.8741669,19.1190862 64.2546426,19.1311867 C64.3021218,19.1324605 64.3489595,19.1330973 64.3957971,19.1330973 L68.1748894,19.1330973 L68.1748894,15.5341341 L64.5157785,15.5341341 C64.5087208,15.5341341 64.501663,15.5328604 64.4946053,15.5328604 L64.4830563,15.5328604 C64.4727905,15.5328604 64.4638079,15.5309498 64.4535422,15.5309498 C64.4349354,15.529676 64.4163287,15.5290391 64.3983636,15.5264917 C64.300197,15.5175754 64.2058801,15.4940112 64.1192625,15.455162 C63.7407117,15.3004021 63.4731596,14.9310164 63.4731596,14.4992172 C63.4731596,13.9273063 63.9396113,13.4643004 64.5157785,13.4643004 L75.1774384,13.4630266 L75.1774384,9.60676713 L64.4265945,9.60358277 Z" id="Fill-42" fill="#FFFFFF" mask="url(#mask-4)"></path>
                <path d="M64.494862,15.5325419 C64.5019197,15.5325419 64.5083358,15.5338157 64.5153935,15.5338157 L68.1745045,15.5338157 L68.1745045,15.5325419 L64.494862,15.5325419 Z" id="Fill-43" fill="#FFFFFF" mask="url(#mask-4)"></path>
                <polygon id="Fill-44" fill="#FFFFFF" mask="url(#mask-4)" points="84.3841157 18.9214648 93.6521952 18.9214648 93.6521952 15.5333062 84.3841157 15.5333062"></polygon>
            </g>
        </g>
    </g>
</svg>